<?xml version="1.0" encoding="utf-8"?>
<!-- Generator: Adobe Illustrator 24.1.1, SVG Export Plug-In . SVG Version: 6.00 Build 0)  -->
<svg version="1.1" id="Layer_1" xmlns="http://www.w3.org/2000/svg" xmlns:xlink="http://www.w3.org/1999/xlink" x="0px" y="0px"
	 viewBox="0 0 512 512" style="enable-background:new 0 0 512 512;" xml:space="preserve">
<style type="text/css">
	.st0{fill:#333333;}
</style>
<g id="XMLID_2_">
	<path id="XMLID_6_" class="st0" d="M256,74c-39.1,0-75.4,6.5-108.9,19.5s-60.5,30.7-81,54c-19.5,22.3-29.8,46.5-29.8,72.6
		c0,21.4,6.5,41.9,20.5,61.4s32.6,36.3,57.7,50.3l25.1,14l-7.4,27c-4.7,17.7-11.2,33.5-19.5,49.3c28.9-12.1,54.9-27.9,78.2-48.4
		l12.1-11.2l15.8,1.9c13,1.9,25.1,1.9,37.2,1.9c39.1,0,75.4-6.5,108.9-19.5c33.5-13,60.5-30.7,81-54s29.8-46.5,29.8-72.6
		s-10.2-50.3-29.8-72.6c-19.5-22.3-46.5-40-81-54S295.1,74,256,74z M512,220.2c0,33.5-11.2,63.3-34.4,92.2
		c-23.3,27.9-54,50.3-93.1,67c-39.1,16.8-81.9,23.3-128.5,23.3c-13,0-27-0.9-41.9-1.9c-38.2,33.5-81.9,56.8-131.3,68.9
		c-9.3,2.8-20.5,4.7-32.6,6.5h-1.9c-2.8,0-5.6-0.9-7.4-2.8c-1.9-1.9-3.7-4.7-4.7-7.4l0,0c-0.9-0.9-0.9-1.9,0-3.7
		c0.9-1.9,0.9-2.8,0.9-2.8s0-0.9,0.9-2.8l1.9-2.8l1.9-2.8l1.9-2.8c0.9-1.9,4.7-4.7,9.3-10.2c4.7-4.7,7.4-8.4,10.2-11.2
		c2.8-2.8,4.7-5.6,9.3-11.2c3.7-5.6,7.4-10.2,9.3-14.9s4.7-10.2,7.4-16.8c2.8-6.5,5.6-14,7.4-21.4c-29.8-16.8-53.1-38.2-70.7-63.3
		S0,247.2,0,219.2c0-33.5,11.2-63.3,34.4-92.2s54-50.3,93.1-67c39.1-15.8,81.9-24.2,128.5-24.2s89.4,8.4,128.5,24.2
		s70.7,38.2,93.1,67C500.8,155.9,512,186.6,512,220.2z"/>
</g>
</svg>
